# xmcd
# Track frame offsets:
# 150
# 15330
# 29140
# 45237
# 58450
# 67505
# 85142
# 100965
# 116002
# 127297
# 146875
# 163885
# 171515
# 186045
# 209582
# 221120
# 235287
# 244145
# 252382
# 257790
# 265175
# 273662
# 283905
# 291937
#
# Disc length: 4023 seconds
# Revision: 0
# Processed by: cddbd v1.4PL0 Copyright (c) Steve Scherf et al.
# Submitted via: VisiTrax 2.9.3.171 - For more info visit www.synapsa.com
#
DISCID=890fb518
DTITLE=Carl Thurlo - The Ranch Hand
DYEAR=1900
DGENRE=
TTITLE0=100 Years Ago
TTITLE1=The Cowboy And The Well
TTITLE2=Old Blaze
TTITLE3=The White Faced Cow
TTITLE4=Tellin' On Keiller
TTITLE5=The Coeboy And The Lord
TTITLE6=Medley
TTITLE7=The Cowboy And The Ghost
TTITLE8=The Boy Accross The Way
TTITLE9=Vietnam
TTITLE10=I Saw It All
TTITLE11=Coeboy Instructions
TTITLE12=Bales Of Hay
TTITLE13=My Life Is Over
TTITLE14=Cowboy's Hell
TTITLE15=Walking With You
TTITLE16=Cowboy And The Maiden
TTITLE17=Cowboy's Prayer
TTITLE18=Aim High
TTITLE19=The Message
TTITLE20=Crawdad song
TTITLE21=Coeboy's Courage
TTITLE22=The Son-in-law
TTITLE23=Chocolate Icecream Cone
EXTD=
EXTT0=
EXTT1=
EXTT2=
EXTT3=
EXTT4=
EXTT5=
EXTT6=
EXTT7=
EXTT8=
EXTT9=
EXTT10=
EXTT11=
EXTT12=
EXTT13=
EXTT14=
EXTT15=
EXTT16=
EXTT17=
EXTT18=
EXTT19=
EXTT20=
EXTT21=
EXTT22=
EXTT23=
PLAYORDER=
